<svg width="309" height="309" viewBox="0 0 309 309" fill="none" xmlns="http://www.w3.org/2000/svg">
<mask id="mask0_908_6613" style="mask-type:alpha" maskUnits="userSpaceOnUse" x="0" y="0" width="309" height="309">
<circle cx="154.417" cy="154.335" r="154.147" fill="#C4C4C4"/>
</mask>
<g mask="url(#mask0_908_6613)">
<rect x="-1.98035" y="-2.06299" width="313.921" height="313.921" fill="#D3603C"/>
<rect x="121.788" y="121.705" width="190.153" height="190.153" fill="#B85131"/>
<path d="M134.84 131.076V222.439H105.135V131.076H88.2578V104.972H215.851V131.076H194.248V184.633C194.248 188.984 195.298 192.36 197.399 194.76C199.499 197.16 202.499 198.36 206.4 198.36C208.2 198.36 210.151 198.06 212.251 197.46C214.501 196.86 216.526 196.11 218.327 195.21L222.602 218.163C218.402 220.114 213.601 221.614 208.2 222.664C202.949 223.714 198.074 224.239 193.573 224.239C184.422 224.239 177.221 221.764 171.97 216.813C166.869 211.712 164.319 204.511 164.319 195.21V131.076H134.84Z" fill="white"/>
</g>
</svg>
